<svg width="283" height="48" viewBox="0 0 283 48" fill="none" xmlns="http://www.w3.org/2000/svg">
<path d="M14.235 47V11.705H0.26V1.5H41.015V11.705H27.105V47H14.235ZM68.12 47.91C64.48 47.91 61.1217 47.325 58.045 46.155C54.9683 44.985 52.2817 43.3383 49.985 41.215C47.7317 39.0483 45.9767 36.535 44.72 33.675C43.4633 30.815 42.835 27.6733 42.835 24.25C42.835 20.8267 43.4633 17.685 44.72 14.825C45.9767 11.965 47.7317 9.47333 49.985 7.35C52.2817 5.18333 54.9683 3.515 58.045 2.345C61.1217 1.175 64.48 0.589997 68.12 0.589997C71.8033 0.589997 75.1617 1.175 78.195 2.345C81.2717 3.515 83.9367 5.18333 86.19 7.35C88.4433 9.47333 90.1983 11.965 91.455 14.825C92.755 17.685 93.405 20.8267 93.405 24.25C93.405 27.6733 92.755 30.8367 91.455 33.74C90.1983 36.6 88.4433 39.0917 86.19 41.215C83.9367 43.3383 81.2717 44.985 78.195 46.155C75.1617 47.325 71.8033 47.91 68.12 47.91ZM68.12 37.25C69.8533 37.25 71.4567 36.9467 72.93 36.34C74.4467 35.7333 75.7467 34.8667 76.83 33.74C77.9567 32.57 78.8233 31.1833 79.43 29.58C80.08 27.9767 80.405 26.2 80.405 24.25C80.405 22.2567 80.08 20.48 79.43 18.92C78.8233 17.3167 77.9567 15.9517 76.83 14.825C75.7467 13.655 74.4467 12.7667 72.93 12.16C71.4567 11.5533 69.8533 11.25 68.12 11.25C66.3867 11.25 64.7617 11.5533 63.245 12.16C61.7717 12.7667 60.4717 13.655 59.345 14.825C58.2617 15.9517 57.395 17.3167 56.745 18.92C56.1383 20.48 55.835 22.2567 55.835 24.25C55.835 26.2 56.1383 27.9767 56.745 29.58C57.395 31.1833 58.2617 32.57 59.345 33.74C60.4717 34.8667 61.7717 35.7333 63.245 36.34C64.7617 36.9467 66.3867 37.25 68.12 37.25ZM109.683 47V27.76L112.673 35.495L92.3279 1.5H105.913L120.603 26.135H112.738L127.493 1.5H139.973L119.693 35.495L122.553 27.76V47H109.683ZM164.224 47.91C160.584 47.91 157.225 47.325 154.149 46.155C151.072 44.985 148.385 43.3383 146.089 41.215C143.835 39.0483 142.08 36.535 140.824 33.675C139.567 30.815 138.939 27.6733 138.939 24.25C138.939 20.8267 139.567 17.685 140.824 14.825C142.08 11.965 143.835 9.47333 146.089 7.35C148.385 5.18333 151.072 3.515 154.149 2.345C157.225 1.175 160.584 0.589997 164.224 0.589997C167.907 0.589997 171.265 1.175 174.299 2.345C177.375 3.515 180.04 5.18333 182.294 7.35C184.547 9.47333 186.302 11.965 187.559 14.825C188.859 17.685 189.509 20.8267 189.509 24.25C189.509 27.6733 188.859 30.8367 187.559 33.74C186.302 36.6 184.547 39.0917 182.294 41.215C180.04 43.3383 177.375 44.985 174.299 46.155C171.265 47.325 167.907 47.91 164.224 47.91ZM164.224 37.25C165.957 37.25 167.56 36.9467 169.034 36.34C170.55 35.7333 171.85 34.8667 172.934 33.74C174.06 32.57 174.927 31.1833 175.534 29.58C176.184 27.9767 176.509 26.2 176.509 24.25C176.509 22.2567 176.184 20.48 175.534 18.92C174.927 17.3167 174.06 15.9517 172.934 14.825C171.85 13.655 170.55 12.7667 169.034 12.16C167.56 11.5533 165.957 11.25 164.224 11.25C162.49 11.25 160.865 11.5533 159.349 12.16C157.875 12.7667 156.575 13.655 155.449 14.825C154.365 15.9517 153.499 17.3167 152.849 18.92C152.242 20.48 151.939 22.2567 151.939 24.25C151.939 26.2 152.242 27.9767 152.849 29.58C153.499 31.1833 154.365 32.57 155.449 33.74C156.575 34.8667 157.875 35.7333 159.349 36.34C160.865 36.9467 162.49 37.25 164.224 37.25ZM205.299 47V11.705H191.324V1.5H232.079V11.705H218.169V47H205.299ZM229.129 47L249.214 1.5H261.889L282.039 47H268.649L252.919 7.805H257.989L242.259 47H229.129ZM240.114 38.16L243.429 28.67H265.659L268.974 38.16H240.114Z" fill="#444444"/>
</svg>
