<svg width="282" height="193" viewBox="0 0 282 193" fill="none" xmlns="http://www.w3.org/2000/svg">
<path fill-rule="evenodd" clip-rule="evenodd" d="M163.108 95.2617C164.382 108.316 159.555 149.478 141.072 149.574C122.466 149.669 117.432 107.698 118.978 95.2617C134.243 96.3606 147.895 96.2046 163.108 95.2617ZM20.8567 91.7062C20.8567 79.3869 24.9173 67.2041 30.2515 58.6047C37.6075 46.7459 34.8009 52.0725 37.1446 58.1941C44.2187 76.6713 70.4525 86.4185 89.2931 90.7146C95.3038 92.0852 101.118 92.8452 107.165 94.0188C107.824 118.623 108.717 144.108 120.381 165.794C126.408 176.998 132.653 178.721 134.12 180.249C121.268 180.568 102.861 176.261 91.5508 172.507C74.7172 166.919 56.6953 156.897 44.512 144.666C30.7514 130.852 20.8567 113.808 20.8567 91.7062ZM174.842 93.9388C195.717 91.9679 232.312 81.5971 243.089 61.9675C246.58 55.6098 245.396 53.3057 246.616 51.2664C249.005 54.5838 250.931 56.8393 253.079 60.8939C268.587 90.1727 260.664 121.159 238.897 143.087C233.128 148.898 228.19 153.036 221.22 157.644C201.323 170.799 172.327 180.2 147.631 180.288C147.889 179.991 147.81 180.055 148.189 179.752C148.458 179.538 148.442 179.559 148.788 179.351C149.142 179.137 149.49 178.995 150.006 178.676C151.79 177.573 154.239 175.377 155.522 173.764C157.637 171.104 159.494 168.827 161.33 165.356C168.572 151.66 171.875 136.5 173.551 120.754C174.54 111.47 174.406 103.284 174.842 93.9388ZM120.28 73.6368C121.527 60.3745 129.128 34.1383 141.071 34.2818C154.048 34.4379 160.391 62.9165 161.745 73.696C148.048 74.0192 133.967 74.875 120.28 73.6368ZM173.931 72.5598C173.016 70.504 172.922 65.4122 172.53 62.7971C171.224 54.0676 169.187 44.5889 166.234 36.532C164.178 30.9204 162.007 26.3433 159.027 21.947C153.69 14.0769 151.425 14.6122 147.866 11.8726C152.525 11.2814 165.596 13.0654 170.66 13.8089C186.405 16.121 208.182 21.6609 220.951 31.4126C227.641 36.5217 232.281 43.0567 227.051 51.6272C224.158 56.3688 219.242 59.8618 213.487 62.7094C203.924 67.4412 184.842 72.2597 173.931 72.5598ZM108.151 72.6292C94.6843 71.3572 79.5669 68.0684 68.5732 62.7747C63.3346 60.2521 57.4374 55.9223 55.0007 51.7162C50.8766 44.5977 53.3279 38.1087 57.827 34.0579C73.0131 20.3845 107.721 11.8121 134.258 11.7926C131.833 13.6738 129.905 13.9441 127.657 16.3663C125.38 18.8212 124.94 19.0408 122.769 22.2277C116.91 30.8314 113.074 43.5635 110.988 54.0549L108.151 72.6292ZM144.548 192.1C178.057 192.1 212.369 182.531 236.162 167.839C260.032 153.098 281.986 128.076 281.986 98.0253V94.2338C281.986 76.9321 274.015 60.8573 266.391 50.7402C239.469 15.0148 187.657 0.00132691 140.755 8.52284e-08C94.15 -0.00132674 41.7531 15.4893 15.401 51.0255C5.91023 63.824 0 78.0753 0 97.7093C0 114.622 7.76766 130.41 15.3667 140.638C40.9223 175.033 92.2569 192.1 137.281 192.1H144.548Z" fill="#EB0A1E"/>
</svg>
